# xmcd
#
# Track frame offsets: 
#        150
#        12384
#        26034
#        40470
#        51671
#        64018
#        76393
#        95453
#        108525
#        122943
#        134181
#        165883
#        183998
#        199176
#        209174
#        223951
#        235975
#
# Disc length: 3685 seconds
#
# Revision: 0
# Processed by: cddbd v1.5.2PL0 Copyright (c) Steve Scherf et al.
# Submitted via: ExactAudioCopy v0.95b3
#
DISCID=0c0e6311
DTITLE=Maleñczuk i Waglewski - Koledzy
DYEAR=2007
DGENRE=Pop
TTITLE0=Koledzy
TTITLE1=Can`t judge book
TTITLE2=Diabe³ w wiosce
TTITLE3=Luty 89
TTITLE4=Niech ¿yje wojna
TTITLE5=Bal na Gnojnej
TTITLE6=Komu dzwoni¹
TTITLE7=Piosenka mêska z g³osem ludzkim
TTITLE8=Praca na saxach
TTITLE9=Ring of life
TTITLE10=Antoni Radwan
TTITLE11=Bo Bóg dokopie
TTITLE12=Biust
TTITLE13=Who do you love
TTITLE14=Kaczory
TTITLE15=Niedziela bêdzie dla nas
TTITLE16=Adam
EXTD=
EXTT0=
EXTT1=
EXTT2=
EXTT3=
EXTT4=
EXTT5=
EXTT6=
EXTT7=
EXTT8=
EXTT9=
EXTT10=
EXTT11=
EXTT12=
EXTT13=
EXTT14=
EXTT15=
EXTT16=
PLAYORDER=
